<svg width="1200" height="720" viewBox="0 0 1200 720" fill="none" xmlns="http://www.w3.org/2000/svg">
  <rect width="1200" height="720" rx="40" fill="#26100E"/>
  <rect x="44" y="44" width="1112" height="632" rx="32" fill="url(#paint0_linear)"/>
  <path d="M198 463C198 425.997 227.997 396 265 396H431L549 300.5C566.775 286.112 588.964 278.25 611.833 278.25H760C797.276 278.25 832.098 297.322 853.071 328.838L905 406H955C992.003 406 1022 435.997 1022 473V485.5C1022 512.286 1000.29 534 973.5 534H944.925C938.893 582.978 897.082 621 846.5 621C795.918 621 754.107 582.978 748.075 534H468.925C462.893 582.978 421.082 621 370.5 621C319.918 621 278.107 582.978 272.075 534H246.5C219.714 534 198 512.286 198 485.5V463Z" fill="#FFE4D9"/>
  <path d="M463 397L556 320C571.483 307.175 590.944 300.154 611.046 300.154H749.561C776.544 300.154 801.457 314.874 814.497 338.522L846 395H463V397Z" fill="#E68663"/>
  <circle cx="370" cy="531" r="56" fill="#3A1410"/>
  <circle cx="370" cy="531" r="25" fill="#FFE4D9"/>
  <circle cx="847" cy="531" r="56" fill="#3A1410"/>
  <circle cx="847" cy="531" r="25" fill="#FFE4D9"/>
  <circle cx="1018" cy="184" r="82" fill="#FFF7F3" fill-opacity="0.12"/>
  <defs>
    <linearGradient id="paint0_linear" x1="105" y1="77" x2="1011" y2="635" gradientUnits="userSpaceOnUse">
      <stop stop-color="#4A1D18"/>
      <stop offset="1" stop-color="#33130F"/>
    </linearGradient>
  </defs>
</svg>
