<svg width="1200" height="720" viewBox="0 0 1200 720" fill="none" xmlns="http://www.w3.org/2000/svg">
  <rect width="1200" height="720" rx="40" fill="#14201C"/>
  <rect x="44" y="44" width="1112" height="632" rx="32" fill="url(#paint0_linear)"/>
  <path d="M200 462C200 423.34 231.34 392 270 392H425L545 305C564.541 290.835 588.046 283.25 612.18 283.25H747.674C784.548 283.25 819.034 301.671 839.66 332.323L892 410H958C993.346 410 1022 438.654 1022 474V485C1022 511.51 1000.51 533 974 533H947.5C941.651 581.763 900.109 619.5 849 619.5C797.891 619.5 756.349 581.763 750.5 533H471.5C465.651 581.763 424.109 619.5 373 619.5C321.891 619.5 280.349 581.763 274.5 533H248C221.49 533 200 511.51 200 485V462Z" fill="#E9F4EF"/>
  <path d="M461 393L555 324C571.507 311.878 591.446 305.333 611.925 305.333H742.703C768.96 305.333 793.278 319.117 806.847 341.646L840 396H461V393Z" fill="#7AA789"/>
  <circle cx="373" cy="532" r="56" fill="#1D332A"/>
  <circle cx="373" cy="532" r="24" fill="#E9F4EF"/>
  <circle cx="849" cy="532" r="56" fill="#1D332A"/>
  <circle cx="849" cy="532" r="24" fill="#E9F4EF"/>
  <path d="M858 176C858 129.608 895.608 92 942 92H1052C1098.39 92 1136 129.608 1136 176C1136 222.392 1098.39 260 1052 260H942C895.608 260 858 222.392 858 176Z" fill="#F0F8F4" fill-opacity="0.1"/>
  <defs>
    <linearGradient id="paint0_linear" x1="96" y1="79" x2="1014" y2="629" gradientUnits="userSpaceOnUse">
      <stop stop-color="#264336"/>
      <stop offset="1" stop-color="#15221D"/>
    </linearGradient>
  </defs>
</svg>
